<svg xmlns="http://www.w3.org/2000/svg" width="628" height="602" viewBox="0 0 628 602">
  <g fill="none" fill-rule="evenodd" transform="translate(2 2)">
    <g transform="translate(0 180)">
      <g fill="#384255" fill-rule="nonzero" stroke="#679" stroke-width="3.185">
        <polygon points="104.033 .243 207.96 60.142 207.96 179.941 104.033 239.841 .105 179.941 .105 60.142"/>
        <polyline points="104.033 239.84 104.033 120.041 .105 60.142"/>
        <polyline points="207.967 239.84 207.967 120.041 104.039 60.142" transform="matrix(-1 0 0 1 312.006 0)"/>
      </g>
      <g transform="translate(29 43)">
        <circle cx="74" cy="74" r="74" fill="#F27A24"/>
        <path fill="#F83" d="M26.5397832,124.600881 C13.0511665,111.944435 4.625,93.9562356 4.625,74 C4.625,35.6852455 35.6852455,4.625 74,4.625 C112.314755,4.625 143.375,35.6852455 143.375,74 C143.375,93.8115857 135.070543,111.683561 121.752728,124.324826 C109.440189,112.492359 92.7140469,105.21875 74.2890625,105.21875 C55.7212151,105.21875 38.8786571,112.605592 26.5397832,124.600881 Z"/>
        <path fill="#FFF" d="M69.3299212,127.818865 L74.3760734,127.818865 C73.828344,126.740544 73.518108,125.522422 73.518108,124.230756 C73.518108,119.828026 77.1064165,116.260456 81.5360825,116.260456 C85.9654163,116.260456 89.556382,119.828026 89.556382,124.230756 C89.556382,128.634479 85.9654163,132.203043 81.5360825,132.203043 L66.3341836,132.203043 C63.2952653,132.203043 60.832642,129.755536 60.832642,126.734912 C60.832642,123.714951 63.2952653,121.267112 66.3341836,121.267112 C66.5324822,118.626468 68.185303,116.495335 68.185303,116.495335 L66.3341836,116.495335 C60.6695522,116.495335 56.078125,121.059399 56.078125,126.689526 C56.078125,132.320979 60.6695522,136.884049 66.3341836,136.884049 L81.5360825,136.884049 C83.8708247,136.884049 86.0567599,136.257596 87.9374414,135.167018 C91.7203948,132.973603 94.2657255,128.898511 94.2657255,124.230756 C94.2657255,117.2437 88.5665496,111.578125 81.5360825,111.578125 C74.5062796,111.578125 68.8074359,117.2437 68.8074359,124.230756 C68.8074359,125.478693 68.9911195,126.681907 69.3299212,127.818865 Z"/>
        <g transform="translate(38.734 20.234)">
          <g transform="translate(0 27.75)">
            <path fill="#FFF" fill-rule="nonzero" d="M2.3125,20.8125 L2.3125,24.859375 C2.3125,24.859375 30.640625,40.46875 35.265625,40.46875 C39.890625,40.46875 67.9875035,24.859375 67.9875035,24.859375 L67.9875035,20.234375 L2.3125,20.8125 Z M-1.87350135e-16,26.225468 L-4.4408921e-16,18.5202669 L70.3000035,17.9014289 L70.3000035,26.2200578 L69.1105527,26.8808638 C69.0541358,26.9122065 68.9459673,26.972141 68.7891903,27.058764 C68.5287991,27.2026363 68.2260942,27.3693859 67.8842177,27.5571101 C66.9083618,28.0929518 65.8135912,28.6898211 64.6250177,29.3325077 C61.2285588,31.1690439 57.7592335,33.0057453 54.4169654,34.7213581 C53.7158087,35.0812674 53.0263717,35.4326518 52.3497953,35.7748167 C43.3699565,40.3161896 37.6933459,42.78125 35.265625,42.78125 C32.839674,42.78125 27.1222218,40.313718 18.0689774,35.7686198 C17.3933544,35.4294295 16.704983,35.0811945 16.0049841,34.7245913 C12.6375942,33.0091285 9.14131761,31.172563 5.7178998,29.3361601 C4.51988957,28.6935188 3.41635751,28.0966933 2.43264211,27.5608945 C2.08801826,27.3731887 1.78287628,27.2064572 1.52038634,27.0626028 C1.3623559,26.9759961 1.25332881,26.9160777 1.19647651,26.884751 L-1.87350135e-16,26.225468 Z"/>
            <path fill="#F83" d="M30.2445202,1.06884794 C32.9518564,-0.356204259 37.3410178,-0.356361032 40.0486519,1.06884794 L68.2625583,15.9197147 C70.9698945,17.3447669 70.9701923,19.6550763 68.2625583,21.0802853 L40.0486519,35.9311521 C37.3413157,37.3562043 32.9521543,37.356361 30.2445202,35.9311521 L2.03061384,21.0802853 C-0.676722358,19.6552331 -0.677020198,17.3449237 2.03061384,15.9197147 L30.2445202,1.06884794 Z"/>
            <path fill="#FFF" fill-rule="nonzero" d="M31.3216408,3.11517821 L3.10773439,17.966045 C2.04742284,18.5241579 2.04742091,18.4758411 3.10773439,19.033955 L31.3216408,33.8848218 C33.3549323,34.9550792 36.938315,34.9550396 38.9715313,33.8848218 L67.1854377,19.033955 C68.2457493,18.4758421 68.2457512,18.5241589 67.1854377,17.966045 L38.9715313,3.11517821 C36.9382398,2.04492081 33.3548571,2.04496039 31.3216408,3.11517821 Z M30.2445202,1.06884794 C32.9518564,-0.356204259 37.3410178,-0.356361032 40.0486519,1.06884794 L68.2625583,15.9197147 C70.9698945,17.3447669 70.9701923,19.6550763 68.2625583,21.0802853 L40.0486519,35.9311521 C37.3413157,37.3562043 32.9521543,37.356361 30.2445202,35.9311521 L2.03061384,21.0802853 C-0.676722358,19.6552331 -0.677020198,17.3449237 2.03061384,15.9197147 L30.2445202,1.06884794 Z"/>
          </g>
          <g transform="translate(0 13.875)">
            <path fill="#FFF" fill-rule="nonzero" d="M-1.87350135e-16,26.225468 L-4.4408921e-16,18.5202669 L70.3000035,17.9014289 L70.3000035,26.2200578 L69.1105527,26.8808638 C69.0541358,26.9122065 68.9459673,26.972141 68.7891903,27.058764 C68.5287991,27.2026363 68.2260942,27.3693859 67.8842177,27.5571101 C66.9083618,28.0929518 65.8135912,28.6898211 64.6250177,29.3325077 C61.2285588,31.1690439 57.7592335,33.0057453 54.4169654,34.7213581 C53.7158087,35.0812674 53.0263717,35.4326518 52.3497953,35.7748167 C43.3699565,40.3161896 37.6933459,42.78125 35.265625,42.78125 C32.839674,42.78125 27.1222218,40.313718 18.0689774,35.7686198 C17.3933544,35.4294295 16.704983,35.0811945 16.0049841,34.7245913 C12.6375942,33.0091285 9.14131761,31.172563 5.7178998,29.3361601 C4.51988957,28.6935188 3.41635751,28.0966933 2.43264211,27.5608945 C2.08801826,27.3731887 1.78287628,27.2064572 1.52038634,27.0626028 C1.3623559,26.9759961 1.25332881,26.9160777 1.19647651,26.884751 L-1.87350135e-16,26.225468 Z"/>
            <path fill="#F83" d="M2.3125,20.8125 L2.3125,24.859375 C2.3125,24.859375 30.640625,40.46875 35.265625,40.46875 C39.890625,40.46875 67.9875035,24.859375 67.9875035,24.859375 L67.9875035,20.234375 L2.3125,20.8125 Z"/>
            <path fill="#F83" d="M30.2445202,1.06884794 C32.9518564,-0.356204259 37.3410178,-0.356361032 40.0486519,1.06884794 L68.2625583,15.9197147 C70.9698945,17.3447669 70.9701923,19.6550763 68.2625583,21.0802853 L40.0486519,35.9311521 C37.3413157,37.3562043 32.9521543,37.356361 30.2445202,35.9311521 L2.03061384,21.0802853 C-0.676722358,19.6552331 -0.677020198,17.3449237 2.03061384,15.9197147 L30.2445202,1.06884794 Z"/>
            <path fill="#FFF" fill-rule="nonzero" d="M31.3216408,3.11517821 L3.10773439,17.966045 C2.04742284,18.5241579 2.04742091,18.4758411 3.10773439,19.033955 L31.3216408,33.8848218 C33.3549323,34.9550792 36.938315,34.9550396 38.9715313,33.8848218 L67.1854377,19.033955 C68.2457493,18.4758421 68.2457512,18.5241589 67.1854377,17.966045 L38.9715313,3.11517821 C36.9382398,2.04492081 33.3548571,2.04496039 31.3216408,3.11517821 Z M30.2445202,1.06884794 C32.9518564,-0.356204259 37.3410178,-0.356361032 40.0486519,1.06884794 L68.2625583,15.9197147 C70.9698945,17.3447669 70.9701923,19.6550763 68.2625583,21.0802853 L40.0486519,35.9311521 C37.3413157,37.3562043 32.9521543,37.356361 30.2445202,35.9311521 L2.03061384,21.0802853 C-0.676722358,19.6552331 -0.677020198,17.3449237 2.03061384,15.9197147 L30.2445202,1.06884794 Z"/>
          </g>
          <path fill="#FFF" fill-rule="nonzero" d="M-1.87350135e-16,26.225468 L-4.4408921e-16,18.5202669 L70.3000035,17.9014289 L70.3000035,26.2200578 L69.1105527,26.8808638 C69.0541358,26.9122065 68.9459673,26.972141 68.7891903,27.058764 C68.5287991,27.2026363 68.2260942,27.3693859 67.8842177,27.5571101 C66.9083618,28.0929518 65.8135912,28.6898211 64.6250177,29.3325077 C61.2285588,31.1690439 57.7592335,33.0057453 54.4169654,34.7213581 C53.7158087,35.0812674 53.0263717,35.4326518 52.3497953,35.7748167 C43.3699565,40.3161896 37.6933459,42.78125 35.265625,42.78125 C32.839674,42.78125 27.1222218,40.313718 18.0689774,35.7686198 C17.3933544,35.4294295 16.704983,35.0811945 16.0049841,34.7245913 C12.6375942,33.0091285 9.14131761,31.172563 5.7178998,29.3361601 C4.51988957,28.6935188 3.41635751,28.0966933 2.43264211,27.5608945 C2.08801826,27.3731887 1.78287628,27.2064572 1.52038634,27.0626028 C1.3623559,26.9759961 1.25332881,26.9160777 1.19647651,26.884751 L-1.87350135e-16,26.225468 Z"/>
          <path fill="#F83" d="M2.3125,20.8125 L2.3125,24.859375 C2.3125,24.859375 30.640625,40.46875 35.265625,40.46875 C39.890625,40.46875 67.9875035,24.859375 67.9875035,24.859375 L67.9875035,20.234375 L2.3125,20.8125 Z"/>
          <path fill="#F83" d="M30.2445202,1.06884794 C32.9518564,-0.356204259 37.3410178,-0.356361032 40.0486519,1.06884794 L68.2625583,15.9197147 C70.9698945,17.3447669 70.9701923,19.6550763 68.2625583,21.0802853 L40.0486519,35.9311521 C37.3413157,37.3562043 32.9521543,37.356361 30.2445202,35.9311521 L2.03061384,21.0802853 C-0.676722358,19.6552331 -0.677020198,17.3449237 2.03061384,15.9197147 L30.2445202,1.06884794 Z"/>
          <path fill="#FFF" fill-rule="nonzero" d="M31.3216408,3.11517821 L3.10773439,17.966045 C2.04742284,18.5241579 2.04742091,18.4758411 3.10773439,19.033955 L31.3216408,33.8848218 C33.3549323,34.9550792 36.938315,34.9550396 38.9715313,33.8848218 L67.1854377,19.033955 C68.2457493,18.4758421 68.2457512,18.5241589 67.1854377,17.966045 L38.9715313,3.11517821 C36.9382398,2.04492081 33.3548571,2.04496039 31.3216408,3.11517821 Z M30.2445202,1.06884794 C32.9518564,-0.356204259 37.3410178,-0.356361032 40.0486519,1.06884794 L68.2625583,15.9197147 C70.9698945,17.3447669 70.9701923,19.6550763 68.2625583,21.0802853 L40.0486519,35.9311521 C37.3413157,37.3562043 32.9521543,37.356361 30.2445202,35.9311521 L2.03061384,21.0802853 C-0.676722358,19.6552331 -0.677020198,17.3449237 2.03061384,15.9197147 L30.2445202,1.06884794 Z"/>
        </g>
      </g>
    </g>
    <g transform="translate(104 358)">
      <g fill="#384255" fill-rule="nonzero" stroke="#679" stroke-width="3.185">
        <polygon points="104.033 .243 207.96 60.142 207.96 179.941 104.033 239.841 .105 179.941 .105 60.142"/>
        <polyline points="104.033 239.84 104.033 120.041 .105 60.142"/>
        <polyline points="207.967 239.84 207.967 120.041 104.039 60.142" transform="matrix(-1 0 0 1 312.006 0)"/>
      </g>
      <g transform="translate(29 43)">
        <circle cx="74" cy="74" r="74" fill="#F27A24"/>
        <path fill="#F83" d="M26.5397832,124.600881 C13.0511665,111.944435 4.625,93.9562356 4.625,74 C4.625,35.6852455 35.6852455,4.625 74,4.625 C112.314755,4.625 143.375,35.6852455 143.375,74 C143.375,93.8115857 135.070543,111.683561 121.752728,124.324826 C109.440189,112.492359 92.7140469,105.21875 74.2890625,105.21875 C55.7212151,105.21875 38.8786571,112.605592 26.5397832,124.600881 Z"/>
        <path fill="#FFF" d="M69.3299212,127.818865 L74.3760734,127.818865 C73.828344,126.740544 73.518108,125.522422 73.518108,124.230756 C73.518108,119.828026 77.1064165,116.260456 81.5360825,116.260456 C85.9654163,116.260456 89.556382,119.828026 89.556382,124.230756 C89.556382,128.634479 85.9654163,132.203043 81.5360825,132.203043 L66.3341836,132.203043 C63.2952653,132.203043 60.832642,129.755536 60.832642,126.734912 C60.832642,123.714951 63.2952653,121.267112 66.3341836,121.267112 C66.5324822,118.626468 68.185303,116.495335 68.185303,116.495335 L66.3341836,116.495335 C60.6695522,116.495335 56.078125,121.059399 56.078125,126.689526 C56.078125,132.320979 60.6695522,136.884049 66.3341836,136.884049 L81.5360825,136.884049 C83.8708247,136.884049 86.0567599,136.257596 87.9374414,135.167018 C91.7203948,132.973603 94.2657255,128.898511 94.2657255,124.230756 C94.2657255,117.2437 88.5665496,111.578125 81.5360825,111.578125 C74.5062796,111.578125 68.8074359,117.2437 68.8074359,124.230756 C68.8074359,125.478693 68.9911195,126.681907 69.3299212,127.818865 Z"/>
        <g fill="#FFF" transform="translate(50.875 24.281)">
          <path fill-rule="nonzero" d="M22.1614583,19.6211122 L22.1614583,62.442399 C22.1614583,63.0809783 22.6791291,63.598649 23.3177083,63.598649 C23.9562876,63.598649 24.4739583,63.0809783 24.4739583,62.442399 L24.4739583,19.6211122 C24.4739583,18.982533 23.9562876,18.4648622 23.3177083,18.4648622 C22.6791291,18.4648622 22.1614583,18.982533 22.1614583,19.6211122 Z"/>
          <path fill-rule="nonzero" d="M23.0203478,-0.933128814 C22.9685952,-0.89526103 22.8734105,-0.824340614 22.73768,-0.721273657 C22.5146929,-0.551948499 22.256954,-0.352303823 21.9673483,-0.123242891 C21.1434319,0.528426223 20.2268367,1.28680985 19.2406295,2.14472991 C16.425173,4.59394814 13.6102365,7.35395912 10.9802483,10.3688236 C3.40669626,19.0507003 -1.15625,28.0653015 -1.15625,37 C-1.15625,46.0801458 3.56101561,52.4081851 11.324456,56.3845814 C14.0075079,57.7588275 16.8715012,58.7507471 19.734175,59.4256865 C20.7359495,59.6618772 21.667345,59.8418654 22.505526,59.9732876 C23.0145565,60.0531007 23.383974,60.099353 23.5908532,60.1195363 L23.8153968,57.8179637 C23.7794188,57.8144537 23.7001712,57.8056622 23.5805726,57.7906881 C23.3752243,57.7649778 23.1353044,57.7312801 22.8637367,57.6886998 C22.0815869,57.566063 21.2074709,57.3971438 20.2648484,57.1748995 C17.5721024,56.5400244 14.8806757,55.6078717 12.378669,54.3263561 C5.32765627,50.7148618 1.15625,45.1190729 1.15625,37 C1.15625,28.7354798 5.48197561,20.189534 12.7228767,11.8889889 C15.2779471,8.96000573 18.0184305,6.27299522 20.7583939,3.88944977 C21.7165837,3.05590255 22.6055,2.32042021 23.4019144,1.69050363 C23.6794245,1.47100957 23.9251455,1.28067393 24.1361756,1.12042832 C24.2608554,1.02575281 24.3450645,0.963010054 24.3859022,0.933128814 L23.0203478,-0.933128814 Z"/>
          <path fill-rule="nonzero" d="M23.0203478,-0.933128814 C22.9685952,-0.89526103 22.8734105,-0.824340614 22.73768,-0.721273657 C22.5146929,-0.551948499 22.256954,-0.352303823 21.9673483,-0.123242891 C21.1434319,0.528426223 20.2268367,1.28680985 19.2406295,2.14472991 C16.425173,4.59394814 13.6102365,7.35395912 10.9802483,10.3688236 C3.40669626,19.0507003 -1.15625,28.0653015 -1.15625,37 C-1.15625,46.0801458 3.56101561,52.4081851 11.324456,56.3845814 C14.0075079,57.7588275 16.8715012,58.7507471 19.734175,59.4256865 C20.7359495,59.6618772 21.667345,59.8418654 22.505526,59.9732876 C23.0145565,60.0531007 23.383974,60.099353 23.5908532,60.1195363 L23.8153968,57.8179637 C23.7794188,57.8144537 23.7001712,57.8056622 23.5805726,57.7906881 C23.3752243,57.7649778 23.1353044,57.7312801 22.8637367,57.6886998 C22.0815869,57.566063 21.2074709,57.3971438 20.2648484,57.1748995 C17.5721024,56.5400244 14.8806757,55.6078717 12.378669,54.3263561 C5.32765627,50.7148618 1.15625,45.1190729 1.15625,37 C1.15625,28.7354798 5.48197561,20.189534 12.7228767,11.8889889 C15.2779471,8.96000573 18.0184305,6.27299522 20.7583939,3.88944977 C21.7165837,3.05590255 22.6055,2.32042021 23.4019144,1.69050363 C23.6794245,1.47100957 23.9251455,1.28067393 24.1361756,1.12042832 C24.2608554,1.02575281 24.3450645,0.963010054 24.3859022,0.933128814 L23.0203478,-0.933128814 Z"/>
          <path fill-rule="nonzero" d="M45.5672228,-0.933128814 C45.5154702,-0.89526103 45.4202855,-0.824340614 45.284555,-0.721273657 C45.0615679,-0.551948499 44.803829,-0.352303823 44.5142233,-0.123242891 C43.6903069,0.528426223 42.7737117,1.28680985 41.7875045,2.14472991 C38.972048,4.59394814 36.1571115,7.35395912 33.5271233,10.3688236 C25.9535713,19.0507003 21.390625,28.0653015 21.390625,37 C21.390625,46.0801458 26.1078906,52.4081851 33.871331,56.3845814 C36.5543829,57.7588275 39.4183762,58.7507471 42.28105,59.4256865 C43.2828245,59.6618772 44.21422,59.8418654 45.052401,59.9732876 C45.5614315,60.0531007 45.930849,60.099353 46.1377282,60.1195363 L46.3622718,57.8179637 C46.3262938,57.8144537 46.2470462,57.8056622 46.1274476,57.7906881 C45.9220993,57.7649778 45.6821794,57.7312801 45.4106117,57.6886998 C44.6284619,57.566063 43.7543459,57.3971438 42.8117234,57.1748995 C40.1189774,56.5400244 37.4275507,55.6078717 34.925544,54.3263561 C27.8745313,50.7148618 23.703125,45.1190729 23.703125,37 C23.703125,28.7354798 28.0288506,20.189534 35.2697517,11.8889889 C37.8248221,8.96000573 40.5653055,6.27299522 43.3052689,3.88944977 C44.2634587,3.05590255 45.152375,2.32042021 45.9487894,1.69050363 C46.2262995,1.47100957 46.4720205,1.28067393 46.6830506,1.12042832 C46.8077304,1.02575281 46.8919395,0.963010054 46.9327772,0.933128814 L45.5672228,-0.933128814 Z" transform="matrix(-1 0 0 1 68.323 0)"/>
          <g fill-rule="nonzero" transform="translate(13.297 30.063)">
            <path d="M10.6457172 21.1511578L.954576267 11.4600168C.503032555 11.0084731-.229064452 11.0084731-.680608165 11.4600168-1.13215188 11.9115605-1.13215188 12.6436576-.680608165 13.0952013L9.01053278 22.7863422C9.4620765 23.2378859 10.1941735 23.2378859 10.6457172 22.7863422 11.0972609 22.3347985 11.0972609 21.6027015 10.6457172 21.1511578zM10.6457172 9.01053278L.954576267-.680608165C.503032555-1.13215188-.229064452-1.13215188-.680608165-.680608165-1.13215188-.229064452-1.13215188.503032555-.680608165.954576267L9.01053278 10.6457172C9.4620765 11.0972609 10.1941735 11.0972609 10.6457172 10.6457172 11.0972609 10.1941735 11.0972609 9.4620765 10.6457172 9.01053278z"/>
          </g>
          <g fill-rule="nonzero" transform="matrix(-1 0 0 1 32.953 30.063)">
            <path d="M10.6457172 21.1511578L.954576267 11.4600168C.503032555 11.0084731-.229064452 11.0084731-.680608165 11.4600168-1.13215188 11.9115605-1.13215188 12.6436576-.680608165 13.0952013L9.01053278 22.7863422C9.4620765 23.2378859 10.1941735 23.2378859 10.6457172 22.7863422 11.0972609 22.3347985 11.0972609 21.6027015 10.6457172 21.1511578zM10.6457172 9.01053278L.954576267-.680608165C.503032555-1.13215188-.229064452-1.13215188-.680608165-.680608165-1.13215188-.229064452-1.13215188.503032555-.680608165.954576267L9.01053278 10.6457172C9.4620765 11.0972609 10.1941735 11.0972609 10.6457172 10.6457172 11.0972609 10.1941735 11.0972609 9.4620765 10.6457172 9.01053278z"/>
          </g>
        </g>
      </g>
    </g>
    <g transform="translate(416 180)">
      <g fill="#384255" fill-rule="nonzero" stroke="#679" stroke-width="3.185">
        <polygon points="104.033 .243 207.96 60.142 207.96 179.941 104.033 239.841 .105 179.941 .105 60.142"/>
        <polyline points="104.033 239.84 104.033 120.041 .105 60.142"/>
        <polyline points="207.967 239.84 207.967 120.041 104.039 60.142" transform="matrix(-1 0 0 1 312.006 0)"/>
      </g>
      <g transform="translate(29 43)">
        <circle cx="74" cy="74" r="74" fill="#F27A24"/>
        <path fill="#F83" d="M26.5397832,124.600881 C13.0511665,111.944435 4.625,93.9562356 4.625,74 C4.625,35.6852455 35.6852455,4.625 74,4.625 C112.314755,4.625 143.375,35.6852455 143.375,74 C143.375,93.8115857 135.070543,111.683561 121.752728,124.324826 C109.440189,112.492359 92.7140469,105.21875 74.2890625,105.21875 C55.7212151,105.21875 38.8786571,112.605592 26.5397832,124.600881 Z"/>
        <path fill="#FFF" d="M69.3299212,127.818865 L74.3760734,127.818865 C73.828344,126.740544 73.518108,125.522422 73.518108,124.230756 C73.518108,119.828026 77.1064165,116.260456 81.5360825,116.260456 C85.9654163,116.260456 89.556382,119.828026 89.556382,124.230756 C89.556382,128.634479 85.9654163,132.203043 81.5360825,132.203043 L66.3341836,132.203043 C63.2952653,132.203043 60.832642,129.755536 60.832642,126.734912 C60.832642,123.714951 63.2952653,121.267112 66.3341836,121.267112 C66.5324822,118.626468 68.185303,116.495335 68.185303,116.495335 L66.3341836,116.495335 C60.6695522,116.495335 56.078125,121.059399 56.078125,126.689526 C56.078125,132.320979 60.6695522,136.884049 66.3341836,136.884049 L81.5360825,136.884049 C83.8708247,136.884049 86.0567599,136.257596 87.9374414,135.167018 C91.7203948,132.973603 94.2657255,128.898511 94.2657255,124.230756 C94.2657255,117.2437 88.5665496,111.578125 81.5360825,111.578125 C74.5062796,111.578125 68.8074359,117.2437 68.8074359,124.230756 C68.8074359,125.478693 68.9911195,126.681907 69.3299212,127.818865 Z"/>
        <g transform="translate(33.531 19.656)">
          <g transform="translate(1.734 40.469)">
            <path fill="#FFF" fill-rule="nonzero" d="M38.734375,24.28125 C17.2932899,24.28125 0,19.2262883 0,12.140625 C0,5.05496166 17.2932899,0 38.734375,0 C60.1754601,0 77.46875,5.05496166 77.46875,12.140625 C77.46875,19.2262883 60.1754601,24.28125 38.734375,24.28125 Z"/>
            <path fill="#F83" d="M38.734375,21.96875 C58.8009406,21.96875 75.15625,17.1879673 75.15625,12.140625 C75.15625,7.09328274 58.8009406,2.3125 38.734375,2.3125 C18.6678094,2.3125 2.3125,7.09328274 2.3125,12.140625 C2.3125,17.1879673 18.6678094,21.96875 38.734375,21.96875 Z"/>
          </g>
          <g transform="translate(1.734 31.219)">
            <path fill="#FFF" fill-rule="nonzero" d="M38.734375,24.28125 C17.2932899,24.28125 0,19.2262883 0,12.140625 C0,5.05496166 17.2932899,0 38.734375,0 C60.1754601,0 77.46875,5.05496166 77.46875,12.140625 C77.46875,19.2262883 60.1754601,24.28125 38.734375,24.28125 Z"/>
            <path fill="#F83" d="M38.734375,21.96875 C58.8009406,21.96875 75.15625,17.1879673 75.15625,12.140625 C75.15625,7.09328274 58.8009406,2.3125 38.734375,2.3125 C18.6678094,2.3125 2.3125,7.09328274 2.3125,12.140625 C2.3125,17.1879673 18.6678094,21.96875 38.734375,21.96875 Z"/>
          </g>
          <g transform="translate(1.734 21.969)">
            <path fill="#FFF" fill-rule="nonzero" d="M38.734375,24.28125 C17.2932899,24.28125 0,19.2262883 0,12.140625 C0,5.05496166 17.2932899,0 38.734375,0 C60.1754601,0 77.46875,5.05496166 77.46875,12.140625 C77.46875,19.2262883 60.1754601,24.28125 38.734375,24.28125 Z"/>
            <path fill="#F83" d="M38.734375,21.96875 C58.8009406,21.96875 75.15625,17.1879673 75.15625,12.140625 C75.15625,7.09328274 58.8009406,2.3125 38.734375,2.3125 C18.6678094,2.3125 2.3125,7.09328274 2.3125,12.140625 C2.3125,17.1879673 18.6678094,21.96875 38.734375,21.96875 Z"/>
          </g>
          <g transform="translate(1.734 12.719)">
            <path fill="#FFF" fill-rule="nonzero" d="M38.734375,24.28125 C17.2932899,24.28125 0,19.2262883 0,12.140625 C0,5.05496166 17.2932899,0 38.734375,0 C60.1754601,0 77.46875,5.05496166 77.46875,12.140625 C77.46875,19.2262883 60.1754601,24.28125 38.734375,24.28125 Z"/>
            <path fill="#F83" d="M38.734375,21.96875 C58.8009406,21.96875 75.15625,17.1879673 75.15625,12.140625 C75.15625,7.09328274 58.8009406,2.3125 38.734375,2.3125 C18.6678094,2.3125 2.3125,7.09328274 2.3125,12.140625 C2.3125,17.1879673 18.6678094,21.96875 38.734375,21.96875 Z"/>
          </g>
          <path fill="#F83" d="M49.6048293,81.1148932 C45.1022985,77.8569152 37.4341618,68.9916626 32.8811434,67.7380188 C29.8457978,66.9022563 27.9616255,65.8850784 27.2286266,64.6864853 C25.1555357,64.6864853 23.4022435,64.5149485 21.96875,64.171875 C19.8185097,63.6572647 11.8974297,59.267276 11.8974297,50.1449376 C11.8974297,44.0633787 11.9784948,39.1036078 12.140625,35.265625 C11.1145624,34.599179 9.95831238,32.0939707 8.671875,27.75 C6.74221893,21.234044 9.32455495,22.1986615 7.39489888,18.2890879 C5.46524282,14.3795143 -2.02402743,4.72800934 1.19206602,1.47003134 C3.33612831,-0.701953987 10.803979,0.0713359689 23.5956181,3.78990121 C34.4708486,5.73238265 43.5533697,10.1787999 50.8431815,17.129153 C58.1329933,24.079506 63.9248495,32.5278287 68.21875,42.4741211 C76.9957818,47.2819748 83.3139538,51.2062914 87.173266,54.2470709 C91.0325781,57.2878503 88.667693,60.7676551 80.0786107,64.6864853 L90.8062744,70.4861599 C76.3646868,75.6044189 72.7887989,80.3355337 80.0786107,84.6795044"/>
          <path fill="#FFF" fill-rule="nonzero" d="M64.8430682,59.1534713 C64.2025017,59.3063372 63.8187823,59.9625628 63.9996972,60.5957793 C65.2360655,64.9231679 69.2297829,68.926054 75.9100075,72.6770685 C76.4668129,72.9897204 77.1716473,72.7917949 77.4842992,72.2349895 C77.7969511,71.6781841 77.5990256,70.9733497 77.0422203,70.6606978 C71.4942421,67.5454513 68.041965,64.3423252 66.6346219,61.1033682 L76.7445069,58.6907265 C77.635848,58.4780153 77.9373406,57.3624266 77.2744861,56.7296873 C75.341052,54.8840942 72.6546038,52.6860406 69.2101078,50.1287045 C65.8608507,47.6420776 62.4910735,45.9866469 59.1020801,45.1729938 C53.4281832,33.0099171 47.3628321,24.0169055 40.8819628,18.1943863 C34.3475039,12.3237215 27.1993937,9.32032286 19.4768073,9.22207721 C13.5295752,4.74169363 9.36989134,3.40548429 6.92159263,5.74255042 C5.65705886,6.94963313 5.48422534,8.45696173 6.2010541,10.0634884 C6.67280418,11.120755 7.34467056,12.0115074 8.82325321,13.7232135 C10.3221094,15.4565865 10.8480112,16.1275415 11.2415781,16.8789138 C11.7780556,17.9031216 12.085847,18.6528236 12.3188825,19.45871 C12.3989777,19.7356962 12.4730776,20.0269514 12.5602706,20.4014933 C12.5911472,20.5341256 12.6229159,20.6737043 12.6659759,20.86521 C12.6642904,20.8577143 12.7534997,21.2553691 12.7805251,21.3750414 C12.8812483,21.8210566 12.9654509,22.1812831 13.0609635,22.5687694 C13.3153002,23.6005909 13.6130339,24.6663667 14.0039316,25.9101606 C14.9685824,28.9795747 16.086526,31.1256088 17.4393642,32.338526 C15.8531641,34.7716904 15.0872044,38.3018956 15.0872044,42.9208166 C15.0872044,50.6809595 17.4814455,54.9253936 21.9257807,54.9253936 C24.5282096,54.9253936 25.8789841,52.3224707 26.3229531,47.2883735 C28.922315,52.0054211 31.456439,55.6926298 33.9347148,58.3540212 C35.7686247,60.3234356 37.9492559,62.1774585 40.5729441,64.0803507 C42.6301151,65.5723628 49.0658552,69.7675102 48.9035793,69.656865 C49.4311871,70.0166059 50.1505253,69.8805228 50.5102662,69.3529151 C50.870007,68.8253073 50.733924,68.1059691 50.2063162,67.7462282 C50.3264274,67.8281241 43.9320588,63.6599449 41.9306425,62.2083701 C39.4186192,60.3864655 37.3471531,58.6252574 35.6270837,56.7780949 C32.6823816,53.6158137 29.5899933,48.8211807 26.3685899,42.4021926 C25.8217421,41.3125402 24.1789266,41.7016427 24.1789266,42.9208166 C24.1789266,49.4960132 23.1993581,52.6128936 21.9257807,52.6128936 C19.1142223,52.6128936 17.3997044,49.573451 17.3997044,42.9208166 C17.3997044,38.1115688 18.2792677,34.753159 19.9556489,32.8328963 C20.4589767,32.256344 20.2733634,31.3586628 19.582658,31.0290003 C18.4380839,30.4827138 17.2582091,28.5519651 16.2100466,25.2168261 C15.8338302,24.0197465 15.5491255,23.0006094 15.3062586,22.0153201 C15.1623381,21.4314472 14.7722034,19.7038795 14.8125444,19.8771664 C14.7168682,19.4661839 14.6332799,19.1376341 14.5403695,18.8163301 C14.2625113,17.8554371 13.8960066,16.9627246 13.2900737,15.805917 C12.7809479,14.8339272 12.2005431,14.0934363 10.7078274,12.3672262 C8.11280799,9.36316434 7.6244157,8.26859992 8.518337,7.41529178 C9.81599569,6.1765891 13.1308963,7.28409272 18.3828635,11.2947781 C18.5844255,11.4487017 18.8310042,11.5320856 19.0846176,11.5320856 C26.3645933,11.5320856 33.1014847,14.3129793 39.3364875,19.914608 C45.6440285,25.5814061 51.6212639,34.4965218 57.2430955,46.6604007 C57.3960431,46.9913313 57.6961074,47.2307462 58.0527375,47.3063968 C61.2905015,47.993211 64.5496126,49.5487316 67.8316061,51.9854192 C70.3302182,53.8404919 72.4136233,55.4960108 74.0797779,56.9492058 L64.8430682,59.1534713 Z"/>
        </g>
      </g>
    </g>
    <g transform="translate(312)">
      <g fill="#384255" fill-rule="nonzero" stroke="#679" stroke-width="3.185">
        <polygon points="104.033 .243 207.96 60.142 207.96 179.941 104.033 239.841 .105 179.941 .105 60.142"/>
        <polyline points="104.033 239.84 104.033 120.041 .105 60.142"/>
        <polyline points="207.967 239.84 207.967 120.041 104.039 60.142" transform="matrix(-1 0 0 1 312.006 0)"/>
      </g>
      <g transform="translate(29 43)">
        <circle cx="74" cy="74" r="74" fill="#F27A24"/>
        <path fill="#F83" d="M26.5397832,124.600881 C13.0511665,111.944435 4.625,93.9562356 4.625,74 C4.625,35.6852455 35.6852455,4.625 74,4.625 C112.314755,4.625 143.375,35.6852455 143.375,74 C143.375,93.8115857 135.070543,111.683561 121.752728,124.324826 C109.440189,112.492359 92.7140469,105.21875 74.2890625,105.21875 C55.7212151,105.21875 38.8786571,112.605592 26.5397832,124.600881 Z"/>
        <path fill="#FFF" d="M69.3299212,127.818865 L74.3760734,127.818865 C73.828344,126.740544 73.518108,125.522422 73.518108,124.230756 C73.518108,119.828026 77.1064165,116.260456 81.5360825,116.260456 C85.9654163,116.260456 89.556382,119.828026 89.556382,124.230756 C89.556382,128.634479 85.9654163,132.203043 81.5360825,132.203043 L66.3341836,132.203043 C63.2952653,132.203043 60.832642,129.755536 60.832642,126.734912 C60.832642,123.714951 63.2952653,121.267112 66.3341836,121.267112 C66.5324822,118.626468 68.185303,116.495335 68.185303,116.495335 L66.3341836,116.495335 C60.6695522,116.495335 56.078125,121.059399 56.078125,126.689526 C56.078125,132.320979 60.6695522,136.884049 66.3341836,136.884049 L81.5360825,136.884049 C83.8708247,136.884049 86.0567599,136.257596 87.9374414,135.167018 C91.7203948,132.973603 94.2657255,128.898511 94.2657255,124.230756 C94.2657255,117.2437 88.5665496,111.578125 81.5360825,111.578125 C74.5062796,111.578125 68.8074359,117.2437 68.8074359,124.230756 C68.8074359,125.478693 68.9911195,126.681907 69.3299212,127.818865 Z"/>
        <g fill="#FFF" transform="translate(38.156 12.14)">
          <g fill-rule="nonzero">
            <g transform="translate(14.453)">
              <path d="M6.44101129 12.9432905L1.50888238 6.25149361C1.13001152 5.73745051.406161722 5.62787175-.107881385 6.00674262-.621924492 6.38561348-.731503246 7.10946328-.352632381 7.62350639L4.57949653 14.3153033C4.95836739 14.8293464 5.68221718 14.9389251 6.19626029 14.5600543 6.7103034 14.1811834 6.81988215 13.4573336 6.44101129 12.9432905zM38.8194979 13.8116013L43.6522615 8.27605446C44.0722351 7.79500807 44.0227258 7.06458706 43.5416795 6.64461346 43.0606331 6.22463987 42.3302121 6.27414915 41.9102385 6.75519554L37.0774748 12.2907424C36.6575012 12.7717888 36.7070105 13.5022098 37.1880569 13.9221834 37.6691033 14.342157 38.3995243 14.2926477 38.8194979 13.8116013zM22.8223877 7.4578125L22.8223877 0C22.8223877-.638579242 22.3047169-1.15625 21.6661377-1.15625 21.0275585-1.15625 20.5098877-.638579242 20.5098877 0L20.5098877 7.4578125C20.5098877 8.09639174 21.0275585 8.6140625 21.6661377 8.6140625 22.3047169 8.6140625 22.8223877 8.09639174 22.8223877 7.4578125z"/>
            </g>
            <path d="M71.846875,26.190401 L71.846875,24.28125 C71.846875,21.726933 69.7761919,19.65625 67.221875,19.65625 L4.625,19.65625 C2.07068303,19.65625 -3.1281361e-16,21.726933 0,24.28125 L0,65.731474 C3.1281361e-16,68.285791 2.07068303,70.356474 4.625,70.356474 L67.221875,70.356474 C69.7761919,70.356474 71.846875,68.285791 71.846875,65.731474 L71.846875,65.611976 L69.534375,65.611976 L69.534375,65.731474 C69.534375,67.0086325 68.4990335,68.043974 67.221875,68.043974 L4.625,68.043974 C3.34784152,68.043974 2.3125,67.0086325 2.3125,65.731474 L2.3125,24.28125 C2.3125,23.0040915 3.34784152,21.96875 4.625,21.96875 L67.221875,21.96875 C68.4990335,21.96875 69.534375,23.0040915 69.534375,24.28125 L69.534375,26.190401 L71.846875,26.190401 Z"/>
          </g>
          <path fill-rule="nonzero" d="M1.4453125 60.125L34.1144907 60.125C34.75307 60.125 35.2707407 59.6073292 35.2707407 58.96875 35.2707407 58.3301708 34.75307 57.8125 34.1144907 57.8125L1.4453125 57.8125C.806733258 57.8125.2890625 58.3301708.2890625 58.96875.2890625 59.6073292.806733258 60.125 1.4453125 60.125zM24.859375 75.734375L45.671875 75.734375C46.3104542 75.734375 46.828125 75.2167042 46.828125 74.578125 46.828125 73.9395458 46.3104542 73.421875 45.671875 73.421875L24.859375 73.421875C24.2207958 73.421875 23.703125 73.9395458 23.703125 74.578125 23.703125 75.2167042 24.2207958 75.734375 24.859375 75.734375zM68.5314726 58.0251819L77.2033476 67.2751819C77.6400982 67.7410492 78.3718146 67.764653 78.8376819 67.3279024 79.3035492 66.8911518 79.327153 66.1594354 78.8904024 65.6935681L70.2185274 56.4435681C69.7817768 55.9777008 69.0500604 55.954097 68.5841931 56.3908476 68.1183258 56.8275982 68.094722 57.5593146 68.5314726 58.0251819z"/>
          <circle cx="35.555" cy="63.883" r="2.023"/>
          <path fill-rule="nonzero" d="M56.0673496 62.4159492C45.5367432 62.4159492 37 53.879206 37 43.3485996 37 32.8179932 45.5367432 24.28125 56.0673496 24.28125 66.597956 24.28125 75.1346992 32.8179932 75.1346992 43.3485996 75.1346992 53.879206 66.597956 62.4159492 56.0673496 62.4159492zM56.0673496 60.1034492C65.3207975 60.1034492 72.8221992 52.6020475 72.8221992 43.3485996 72.8221992 34.0951517 65.3207975 26.59375 56.0673496 26.59375 46.8139017 26.59375 39.3125 34.0951517 39.3125 43.3485996 39.3125 52.6020475 46.8139017 60.1034492 56.0673496 60.1034492zM24.3309405 51.7884461C24.647912 52.834452 26.1051296 52.8973494 26.5110512 51.8825455L29.6890694 43.9375 34.109375 43.9375C34.7479542 43.9375 35.265625 43.4198292 35.265625 42.78125 35.265625 42.1426708 34.7479542 41.625 34.109375 41.625L28.90625 41.625C28.4334541 41.625 28.0082908 41.9128495 27.8326988 42.3518295L25.5881326 47.9632452 20.7628095 32.0396789C20.4514619 31.0122321 19.0298331 30.9268632 18.5977698 31.9096682L14.3266901 41.625 1.734375 41.625C1.09579576 41.625.578125 42.1426708.578125 42.78125.578125 43.4198292 1.09579576 43.9375 1.734375 43.9375L15.0814271 43.9375C15.5400557 43.9375 15.9553325 43.6664299 16.1399073 43.2465818L19.4564297 35.7025605 24.3309405 51.7884461z"/>
          <path fill-rule="nonzero" d="M59.5735687,50.8159343 C59.831362,51.9947769 61.4958769,52.0401722 61.8175389,50.8771328 L63.4412563,45.0062276 L65.90625,45.0062276 C66.5448292,45.0062276 67.0625,44.4885568 67.0625,43.8499776 C67.0625,43.2113983 66.5448292,42.6937276 65.90625,42.6937276 L62.5613839,42.6937276 C62.0415061,42.6937276 61.5855503,43.0406965 61.44697,43.5417639 L60.8343637,45.7567761 L58.1161635,33.3269341 C57.8639044,32.1733983 56.24841,32.0953492 55.886124,33.2191945 L52.8318869,42.6937276 L45.09375,42.6937276 C44.4551708,42.6937276 43.9375,43.2113983 43.9375,43.8499776 C43.9375,44.4885568 44.4551708,45.0062276 45.09375,45.0062276 L53.6739978,45.0062276 C54.175902,45.0062276 54.6204891,44.6824294 54.7744809,44.2047324 L56.7724398,38.0068744 L59.5735687,50.8159343 Z"/>
        </g>
      </g>
    </g>
    <g transform="translate(104)">
      <g fill="#384255" fill-rule="nonzero" stroke="#679" stroke-width="3.185">
        <polygon points="104.033 .243 207.96 60.142 207.96 179.941 104.033 239.841 .105 179.941 .105 60.142"/>
        <polyline points="104.033 239.84 104.033 120.041 .105 60.142"/>
        <polyline points="207.967 239.84 207.967 120.041 104.039 60.142" transform="matrix(-1 0 0 1 312.006 0)"/>
      </g>
      <g transform="translate(29 43)">
        <g>
          <circle cx="74" cy="74" r="74" fill="#F27A24"/>
          <path fill="#F83" d="M26.5397832,124.600881 C13.0511665,111.944435 4.625,93.9562356 4.625,74 C4.625,35.6852455 35.6852455,4.625 74,4.625 C112.314755,4.625 143.375,35.6852455 143.375,74 C143.375,93.8115857 135.070543,111.683561 121.752728,124.324826 C109.440189,112.492359 92.7140469,105.21875 74.2890625,105.21875 C55.7212151,105.21875 38.8786571,112.605592 26.5397832,124.600881 Z"/>
          <path fill="#FFF" d="M69.3299212,127.818865 L74.3760734,127.818865 C73.828344,126.740544 73.518108,125.522422 73.518108,124.230756 C73.518108,119.828026 77.1064165,116.260456 81.5360825,116.260456 C85.9654163,116.260456 89.556382,119.828026 89.556382,124.230756 C89.556382,128.634479 85.9654163,132.203043 81.5360825,132.203043 L66.3341836,132.203043 C63.2952653,132.203043 60.832642,129.755536 60.832642,126.734912 C60.832642,123.714951 63.2952653,121.267112 66.3341836,121.267112 C66.5324822,118.626468 68.185303,116.495335 68.185303,116.495335 L66.3341836,116.495335 C60.6695522,116.495335 56.078125,121.059399 56.078125,126.689526 C56.078125,132.320979 60.6695522,136.884049 66.3341836,136.884049 L81.5360825,136.884049 C83.8708247,136.884049 86.0567599,136.257596 87.9374414,135.167018 C91.7203948,132.973603 94.2657255,128.898511 94.2657255,124.230756 C94.2657255,117.2437 88.5665496,111.578125 81.5360825,111.578125 C74.5062796,111.578125 68.8074359,117.2437 68.8074359,124.230756 C68.8074359,125.478693 68.9911195,126.681907 69.3299212,127.818865 Z"/>
        </g>
        <path fill="#FFF" fill-rule="nonzero" d="M45.4567755,69.305419 C45.0805656,68.537221 45.639815,67.6406272 46.4951766,67.640625 L102.082939,67.640625 C102.938311,67.640625 103.49756,68.5372187 103.121351,69.3054167 C97.7737057,80.2249907 86.6661545,87.296875 74.2890625,87.296875 C61.9119714,87.296875 50.8044209,80.2249917 45.4567755,69.305419 Z M48.4148643,69.9531271 C53.6520476,79.1352581 63.4449727,84.984375 74.2890625,84.984375 C85.1331532,84.984375 94.9260789,79.1352572 100.163262,69.953125 L94.1117819,69.953125 L48.4148643,69.9531271 Z M84.984375,63.015625 L84.984375,49.71875 L45.0209302,49.71875 C44.6857896,51.5163299 44.515625,53.3523162 44.515625,55.2109375 C44.515625,57.8764737 44.8656584,60.494004 45.5487529,63.015625 L84.984375,63.015625 Z M43.5705542,64.506363 C42.6671865,61.5171447 42.203125,58.3945084 42.203125,55.2109375 C42.203125,52.8712672 42.4537411,50.5632988 42.9461986,48.3150951 C43.0624378,47.7844316 43.5324245,47.40625 44.0756697,47.40625 L86.140625,47.40625 C86.7792042,47.40625 87.296875,47.9239208 87.296875,48.5625 L87.296875,64.171875 C87.296875,64.8104542 86.7792042,65.328125 86.140625,65.328125 L44.6773658,65.328125 C44.1676222,65.328125 43.7180164,64.9943112 43.5705542,64.506363 Z M101.352577,42.7812497 C96.554881,32.3395872 86.0668261,25.4375 74.2890625,25.4375 C62.5112988,25.4375 52.0232438,32.3395873 47.2255474,42.78125 L101.352577,42.7812497 Z M44.4015126,43.5158976 C49.1779376,31.3183374 60.9680346,23.125 74.2890625,23.125 C87.6100904,23.125 99.4001874,31.3183374 104.176612,43.5158976 C104.473572,44.2742448 103.914384,45.0937496 103.099967,45.0937496 L45.4781582,45.0937496 C44.6637408,45.0937497 44.1045525,44.2742448 44.4015126,43.5158976 Z"/>
      </g>
    </g>
    <g transform="translate(208 180)">
      <g fill="#384255" fill-rule="nonzero" stroke="#679" stroke-width="3.185">
        <polygon points="104.033 .243 207.96 60.142 207.96 179.941 104.033 239.841 .105 179.941 .105 60.142"/>
        <polyline points="104.033 239.84 104.033 120.041 .105 60.142"/>
        <polyline points="207.967 239.84 207.967 120.041 104.039 60.142" transform="matrix(-1 0 0 1 312.006 0)"/>
      </g>
      <g transform="translate(29 43)">
        <circle cx="74" cy="74" r="74" fill="#F27A24"/>
        <path fill="#F83" d="M26.5397832,124.600881 C13.0511665,111.944435 4.625,93.9562356 4.625,74 C4.625,35.6852455 35.6852455,4.625 74,4.625 C112.314755,4.625 143.375,35.6852455 143.375,74 C143.375,93.8115857 135.070543,111.683561 121.752728,124.324826 C109.440189,112.492359 92.7140469,105.21875 74.2890625,105.21875 C55.7212151,105.21875 38.8786571,112.605592 26.5397832,124.600881 Z"/>
        <path fill="#FFF" d="M69.3299212,127.818865 L74.3760734,127.818865 C73.828344,126.740544 73.518108,125.522422 73.518108,124.230756 C73.518108,119.828026 77.1064165,116.260456 81.5360825,116.260456 C85.9654163,116.260456 89.556382,119.828026 89.556382,124.230756 C89.556382,128.634479 85.9654163,132.203043 81.5360825,132.203043 L66.3341836,132.203043 C63.2952653,132.203043 60.832642,129.755536 60.832642,126.734912 C60.832642,123.714951 63.2952653,121.267112 66.3341836,121.267112 C66.5324822,118.626468 68.185303,116.495335 68.185303,116.495335 L66.3341836,116.495335 C60.6695522,116.495335 56.078125,121.059399 56.078125,126.689526 C56.078125,132.320979 60.6695522,136.884049 66.3341836,136.884049 L81.5360825,136.884049 C83.8708247,136.884049 86.0567599,136.257596 87.9374414,135.167018 C91.7203948,132.973603 94.2657255,128.898511 94.2657255,124.230756 C94.2657255,117.2437 88.5665496,111.578125 81.5360825,111.578125 C74.5062796,111.578125 68.8074359,117.2437 68.8074359,124.230756 C68.8074359,125.478693 68.9911195,126.681907 69.3299212,127.818865 Z"/>
        <g fill="#FFF" transform="translate(50.297 22.547)">
          <path fill-rule="nonzero" d="M10.9331487,22.0867347 L10.9331487,5.4692398 C10.9331487,2.44348957 8.48568002,0 5.46657437,0 C2.44680489,0 0,2.44866207 0,5.4692398 L0,53.192426 C0,57.0202375 3.10664781,60.125 6.9388921,60.125 L41.0454829,60.125 C44.8729585,60.125 47.984375,57.0211809 47.984375,53.192426 L47.984375,29.0193087 C47.984375,25.1914972 44.8777272,22.0867347 41.0454829,22.0867347 L10.9331487,22.0867347 Z M13.2456487,19.7742347 L41.0454829,19.7742347 C46.1541369,19.7742347 50.296875,23.9135897 50.296875,29.0193087 L50.296875,53.192426 C50.296875,58.2974125 46.1510472,62.4375 41.0454829,62.4375 L6.9388921,62.4375 C1.83023813,62.4375 -2.3125,58.2981449 -2.3125,53.192426 L-2.3125,5.4692398 C-2.3125,1.17156987 1.16957981,-2.3125 5.46657437,-2.3125 C9.76453931,-2.3125 13.2456487,1.16803157 13.2456487,5.4692398 L13.2456487,19.7742347 Z"/>
          <path fill-rule="nonzero" d="M15.3239715,36.4785929 C17.0780436,36.4785929 18.5,35.0423016 18.5,33.2705465 C18.5,31.4987913 17.0780436,30.0625 15.3239715,30.0625 C13.5698994,30.0625 12.147943,31.4987913 12.147943,33.2705465 C12.147943,35.0423016 13.5698994,36.4785929 15.3239715,36.4785929 Z M15.3239715,38.7910929 C12.2875197,38.7910929 9.83544304,36.3142965 9.83544304,33.2705465 C9.83544304,30.2267964 12.2875197,27.75 15.3239715,27.75 C18.3604233,27.75 20.8125,30.2267964 20.8125,33.2705465 C20.8125,36.3142965 18.3604233,38.7910929 15.3239715,38.7910929 Z"/>
        </g>
      </g>
    </g>
    <g transform="translate(312 358)">
      <g fill="#384255" fill-rule="nonzero" stroke="#679" stroke-width="3.185">
        <polygon points="104.033 .243 207.96 60.142 207.96 179.941 104.033 239.841 .105 179.941 .105 60.142"/>
        <polyline points="104.033 239.84 104.033 120.041 .105 60.142"/>
        <polyline points="207.967 239.84 207.967 120.041 104.039 60.142" transform="matrix(-1 0 0 1 312.006 0)"/>
      </g>
      <g transform="translate(29 43)">
        <circle cx="74" cy="74" r="74" fill="#F27A24"/>
        <path fill="#F83" d="M26.5397832,124.600881 C13.0511665,111.944435 4.625,93.9562356 4.625,74 C4.625,35.6852455 35.6852455,4.625 74,4.625 C112.314755,4.625 143.375,35.6852455 143.375,74 C143.375,93.8115857 135.070543,111.683561 121.752728,124.324826 C109.440189,112.492359 92.7140469,105.21875 74.2890625,105.21875 C55.7212151,105.21875 38.8786571,112.605592 26.5397832,124.600881 Z"/>
        <path fill="#FFF" d="M69.3299212,127.818865 L74.3760734,127.818865 C73.828344,126.740544 73.518108,125.522422 73.518108,124.230756 C73.518108,119.828026 77.1064165,116.260456 81.5360825,116.260456 C85.9654163,116.260456 89.556382,119.828026 89.556382,124.230756 C89.556382,128.634479 85.9654163,132.203043 81.5360825,132.203043 L66.3341836,132.203043 C63.2952653,132.203043 60.832642,129.755536 60.832642,126.734912 C60.832642,123.714951 63.2952653,121.267112 66.3341836,121.267112 C66.5324822,118.626468 68.185303,116.495335 68.185303,116.495335 L66.3341836,116.495335 C60.6695522,116.495335 56.078125,121.059399 56.078125,126.689526 C56.078125,132.320979 60.6695522,136.884049 66.3341836,136.884049 L81.5360825,136.884049 C83.8708247,136.884049 86.0567599,136.257596 87.9374414,135.167018 C91.7203948,132.973603 94.2657255,128.898511 94.2657255,124.230756 C94.2657255,117.2437 88.5665496,111.578125 81.5360825,111.578125 C74.5062796,111.578125 68.8074359,117.2437 68.8074359,124.230756 C68.8074359,125.478693 68.9911195,126.681907 69.3299212,127.818865 Z"/>
        <g fill="#FFF" transform="translate(41.047 23.703)">
          <path fill-rule="nonzero" d="M36.1332498,64.5485174 L36.9083852,65.2769928 C37.60338,64.6144284 38.3368198,63.8946506 39.1271603,63.0932117 C41.3859313,60.8027219 43.6447322,58.3203366 45.7503658,55.7379973 C48.6897337,52.1331701 51.0848532,48.6307591 52.7422195,45.3562715 C52.9695687,44.9070938 53.1822041,44.4636487 53.3797806,44.0262088 C51.9633821,43.5178301 49.8619841,42.7804561 49.7647894,42.745467 C48.1492072,42.1638745 46.8975891,41.6735384 45.8697825,41.2016148 C45.4920899,47.9169857 42.6796375,55.6244194 36.1332498,64.5485174 Z M46.4446951,38.916174 C47.459881,39.4082211 48.76895,39.9291975 50.5480578,40.5696575 C50.6479589,40.6056209 54.4905721,41.9535549 55.3381773,42.2806691 L56.4322993,42.7029208 L55.9945653,43.7909413 C55.6516564,44.643267 55.2544907,45.5134772 54.8054858,46.4005839 C53.0633303,49.8425909 50.5787139,53.4758743 47.542585,57.1993687 C45.3871007,59.8428448 43.0804181,62.3778513 40.7737057,64.7169557 C39.966127,65.5358748 39.2157846,66.2722404 38.5416305,66.9149589 C38.3049583,67.1405951 38.0944753,67.3386211 37.9125527,67.5076457 C37.8022518,67.6101264 37.7252705,67.6808061 37.683981,67.7182915 L36.8932154,68.4362007 L33.0432919,64.8180265 L33.6671026,63.9898572 C40.9992532,54.2557141 43.6806384,46.1670052 43.6000997,39.3261117 L43.5751206,37.2044111 L45.371575,38.3335653 C45.6616851,38.5159128 46.0206231,38.7106318 46.4446951,38.916174 Z"/>
          <path fill-rule="nonzero" d="M29.3797201,30.3890805 C29.3827659,30.3408451 29.3885322,30.2476362 29.3966303,30.1137065 C29.4101598,29.8899507 29.4252442,29.6339664 29.4414945,29.3500089 C29.4879442,28.5383532 29.5344001,27.6657463 29.577751,26.7663016 C29.6272661,25.7389612 29.6695159,24.7420489 29.702243,23.8005338 C29.7825066,21.4914542 29.8000008,19.6780244 29.7390693,18.5764238 L32.0160607,18.2352691 C32.0307933,18.2949066 32.057528,18.4056708 32.0945525,18.5630896 C32.1557353,18.8232235 32.2237701,19.12102 32.2969448,19.4520179 C32.505665,20.3961415 32.7142708,21.4190814 32.9090611,22.4853934 C33.1847918,23.9947863 33.4098331,25.4664852 33.5663919,26.8561121 C33.7830534,28.7792148 33.8601751,30.4641766 33.7681889,31.8612505 C36.066311,33.8501408 38.153165,35.3099478 39.4631546,35.745219 L40.4565939,34.4237617 L41.3651833,35.0274697 C43.1790791,36.2327044 45.0973027,37.3787447 47.0541347,38.3851156 C49.4531889,39.6972068 51.7320816,40.5756438 53.9004315,41.0754583 L54.0303206,40.4282676 C54.1542509,39.8107673 54.2405448,39.2664793 54.2916572,38.7571615 C54.5601981,36.0673714 54.2846195,32.9696329 53.526373,29.5460337 C52.6902132,25.7706439 51.2997588,21.7294158 49.5096957,17.5902315 C48.4340182,15.1029296 47.2808388,12.7338949 46.1280747,10.5639587 C45.7250825,9.8053756 45.351246,9.12640157 45.0163052,8.53706051 C44.9090558,8.34835115 44.8130883,8.18171051 44.729347,8.03810855 C44.6414787,7.98209522 44.5274426,7.91248512 44.3879029,7.83195861 C43.9178565,7.56070111 43.3608092,7.28692337 42.7215876,7.02994084 C39.8622075,5.88040087 36.473296,5.4629275 32.6386088,6.21714661 L32.2056914,6.30229425 L31.8261004,6.0773982 C31.7941215,6.05845166 31.7203221,6.01650601 31.6067616,5.9548279 C31.4103347,5.84814255 31.1781875,5.72820307 30.9123918,5.59826898 C30.1456332,5.22343934 29.2685299,4.84729613 28.29784,4.49574404 C24.6972984,3.19174572 20.8661754,2.58081861 17.0437511,3.04168741 C16.9371962,3.05319977 16.7239773,3.08053199 16.4195669,3.12656298 C15.9048768,3.20439111 15.3295269,3.30667736 14.7090921,3.4362094 C12.938532,3.80586026 11.1694968,4.3177552 9.52876709,4.99085713 C3.82340914,7.33145433 1.21848669,10.8356348 2.9263173,15.9758302 C3.39780533,17.2630688 4.44587959,18.9083232 6.28504162,20.6060153 C6.37132041,20.6853713 6.46320043,20.7681752 6.5660352,20.8594699 C6.75901194,21.0298518 6.84405837,21.1037634 6.96112017,21.2010358 C9.0527439,22.974336 11.0167126,24.0115847 12.5756641,24.0115847 L13.1415499,24.0115847 L13.4887315,24.4584534 C13.5125305,24.4890863 13.5125305,24.4890863 13.6280869,24.6373987 C13.7423849,24.7839844 13.8753024,24.9541106 14.0253958,25.1458128 C14.4544742,25.6938403 14.9349549,26.304625 15.4552823,26.9624426 C16.9416775,28.8415998 18.4491015,30.7206052 19.8847727,32.4732855 C20.0758763,32.7065865 20.2646726,32.9363704 20.4510195,33.1624443 C22.1176336,35.1843619 23.5491075,36.8624335 24.6703944,38.0958934 C25.2893396,38.7767577 25.8043941,39.3115389 26.2008249,39.6835134 C26.3169108,39.7924377 26.4209719,39.8856091 26.5114181,39.9620025 C26.5715802,40.012817 26.6257184,40.0562082 26.6733646,40.0918742 C26.7129636,40.1335522 26.9000535,40.2113114 26.9000535,40.2113114 C26.8509779,40.1856737 26.8019441,40.1645509 26.7529564,40.1480161 C26.5651334,40.0958403 26.4405014,40.0968483 26.3469451,40.1247527 C26.4525624,40.0225027 26.4816778,39.9935524 26.5114181,39.9620025 C26.8768756,39.5743076 27.3366779,38.794067 27.8542108,37.5412289 L28.3396791,36.5638369 C28.4166914,36.429717 28.4563134,36.3504769 28.5033753,36.2403752 C28.5508407,36.1282125 28.6713298,35.6834337 28.8048697,35.1205513 C28.8566278,34.9023866 28.9079424,34.6779183 28.9559604,34.46193 C28.9729761,34.3853919 28.9830638,34.339481 29.00151,34.25487 C29.0176724,34.1754451 29.0113078,34.2368987 28.9922461,34.4209506 L29.0073724,34.2345351 C29.1779131,33.1698527 29.3006154,31.9253378 29.3797201,30.3890805 Z M63.2162813,43.0381082 C61.2983843,43.7122457 59.0076953,44.0297473 56.3938364,43.8050787 C55.6157597,43.7513985 54.8099268,43.6349593 53.9932522,43.4614335 C51.436814,42.9446734 48.7524639,41.9497309 45.9706852,40.427887 C44.280494,39.5590146 42.6062419,38.581351 40.9992325,37.5502957 L40.4868628,38.2318419 L39.8506514,38.1790484 C37.8566836,38.0135869 35.0809177,36.1128859 31.7998788,33.2117695 L31.5060858,32.9519957 C31.4435909,33.5569989 31.3712804,34.1074888 31.2896198,34.6073661 C31.1850019,35.1781249 30.806079,36.732687 30.6314269,37.1453813 C30.5510993,37.3333396 30.4719694,37.4943201 30.3889341,37.6362244 L29.9753841,38.4631169 C28.7048633,41.5224723 27.4104453,42.7158532 26.1003845,42.3653352 C26.0246577,42.3450739 25.9550854,42.3199689 25.8917875,42.2913677 C24.7633121,41.8056649 22.56089,39.3578384 18.666583,34.633309 C18.4787084,34.4053816 18.2884104,34.1737699 18.0958271,33.9386625 C16.650879,32.1746569 15.1355391,30.2857845 13.6415795,28.3970639 C13.1187827,27.7361244 12.6359492,27.1223488 12.2045927,26.5714119 C12.1283465,26.4740287 12.056481,26.3821479 11.9891814,26.2960216 C9.91459691,26.0995181 7.72631866,24.8815136 5.47479562,22.9725758 C5.34305752,22.8631978 5.24575368,22.7786335 5.03315337,22.5909201 C4.91844533,22.4890909 4.81669912,22.3973953 4.71804293,22.3066526 C2.59421868,20.3461976 1.34752238,18.3891487 0.74336992,16.7381788 C-1.44032636,10.1678738 1.95714367,5.59754653 8.65106307,2.85139647 C10.435799,2.11921667 12.3369055,1.56910502 14.2364871,1.17251756 C14.9006019,1.03386618 15.5180481,0.924096006 16.073816,0.840056345 C16.4116804,0.788966662 16.6572292,0.757490123 16.7811179,0.744194246 C20.9891444,0.236735066 25.1698888,0.90341427 29.085299,2.32144769 C30.1368542,2.70228657 31.0895514,3.11084797 31.9279994,3.52072293 C32.1979477,3.65268708 32.4269924,3.77018577 32.6128209,3.86934083 C36.7411224,3.13457108 40.4351807,3.61836898 43.5841713,4.88433938 C44.8655921,5.39950153 45.7749974,5.9243073 46.2802344,6.29702288 L46.4664221,6.43437436 L46.5854211,6.6327944 C46.6070508,6.66885994 46.6469107,6.73615185 46.7037875,6.83343415 C46.7972775,6.99333957 46.9053508,7.18075207 47.0267946,7.39443698 C47.3723203,8.00240247 47.7567179,8.70055793 48.1702854,9.47904782 C49.3505491,11.7007486 50.5303977,14.1245713 51.6322129,16.6723116 C53.4762306,20.9362557 54.9127113,25.1112551 55.7841616,29.0459868 C56.5915797,32.6916034 56.888265,36.0265989 56.5926588,38.9874819 C56.5669253,39.2439082 56.5340028,39.5049336 56.4937571,39.7742309 C58.9681253,40.27323 61.3778762,40.2749948 63.6743188,39.6776045 C63.9394841,39.5959612 64.038586,39.5728165 64.1410166,39.556569 C64.6262282,39.479605 65.0475444,39.5263846 65.4429214,39.9572304 L65.5895067,40.1169657 L65.6682676,40.3189541 C65.888286,40.8832085 65.8004746,41.4607916 65.4439803,41.8759096 C65.336008,42.0016375 65.2206365,42.0946202 65.1043141,42.1636405 C64.733017,42.4063582 64.1006292,42.7272614 63.2162813,43.0381082 Z"/>
          <path d="M43.359375,21.390625 C43.359375,22.6677835 44.3947165,23.703125 45.671875,23.703125 C46.9490335,23.703125 47.984375,22.6677835 47.984375,21.390625 L43.359375,21.390625 Z"/>
        </g>
      </g>
    </g>
  </g>
</svg>
